<mxfile host="app.diagrams.net" agent="Mozilla/5.0 (Windows NT 10.0; Win64; x64; rv:139.0) Gecko/20100101 Firefox/139.0" version="27.1.4">
  <diagram name="Page-1" id="A6XcXcvzrmiU3Mvwu2EP">
    <mxGraphModel dx="1042" dy="563" grid="1" gridSize="10" guides="1" tooltips="1" connect="1" arrows="1" fold="1" page="1" pageScale="1" pageWidth="850" pageHeight="1100" math="0" shadow="0">
      <root>
        <mxCell id="0" />
        <mxCell id="1" parent="0" />
        <mxCell id="92x0XwQia1V_wu7XYbco-10" style="edgeStyle=orthogonalEdgeStyle;rounded=0;orthogonalLoop=1;jettySize=auto;html=1;exitX=0.25;exitY=0;exitDx=0;exitDy=0;entryX=0.25;entryY=1;entryDx=0;entryDy=0;" edge="1" parent="1" source="92x0XwQia1V_wu7XYbco-1" target="92x0XwQia1V_wu7XYbco-2">
          <mxGeometry relative="1" as="geometry" />
        </mxCell>
        <mxCell id="92x0XwQia1V_wu7XYbco-1" value="RegistrationScreen" style="rounded=1;whiteSpace=wrap;html=1;" vertex="1" parent="1">
          <mxGeometry x="60" y="360" width="120" height="60" as="geometry" />
        </mxCell>
        <mxCell id="92x0XwQia1V_wu7XYbco-9" style="edgeStyle=orthogonalEdgeStyle;rounded=0;orthogonalLoop=1;jettySize=auto;html=1;exitX=0.75;exitY=1;exitDx=0;exitDy=0;entryX=0.75;entryY=0;entryDx=0;entryDy=0;" edge="1" parent="1" source="92x0XwQia1V_wu7XYbco-2" target="92x0XwQia1V_wu7XYbco-1">
          <mxGeometry relative="1" as="geometry" />
        </mxCell>
        <mxCell id="92x0XwQia1V_wu7XYbco-11" style="edgeStyle=orthogonalEdgeStyle;rounded=0;orthogonalLoop=1;jettySize=auto;html=1;exitX=1;exitY=0.5;exitDx=0;exitDy=0;entryX=0;entryY=0.5;entryDx=0;entryDy=0;" edge="1" parent="1" source="92x0XwQia1V_wu7XYbco-2" target="92x0XwQia1V_wu7XYbco-3">
          <mxGeometry relative="1" as="geometry" />
        </mxCell>
        <mxCell id="92x0XwQia1V_wu7XYbco-2" value="LoginScreen" style="rounded=1;whiteSpace=wrap;html=1;" vertex="1" parent="1">
          <mxGeometry x="60" y="230" width="120" height="60" as="geometry" />
        </mxCell>
        <mxCell id="92x0XwQia1V_wu7XYbco-12" style="rounded=0;orthogonalLoop=1;jettySize=auto;html=1;exitX=0.75;exitY=1;exitDx=0;exitDy=0;entryX=0.75;entryY=0;entryDx=0;entryDy=0;" edge="1" parent="1" source="92x0XwQia1V_wu7XYbco-3" target="92x0XwQia1V_wu7XYbco-4">
          <mxGeometry relative="1" as="geometry" />
        </mxCell>
        <mxCell id="92x0XwQia1V_wu7XYbco-14" style="edgeStyle=orthogonalEdgeStyle;rounded=0;orthogonalLoop=1;jettySize=auto;html=1;exitX=0.75;exitY=1;exitDx=0;exitDy=0;entryX=0.75;entryY=0;entryDx=0;entryDy=0;" edge="1" parent="1" source="92x0XwQia1V_wu7XYbco-3" target="92x0XwQia1V_wu7XYbco-5">
          <mxGeometry relative="1" as="geometry" />
        </mxCell>
        <mxCell id="92x0XwQia1V_wu7XYbco-3" value="MenuScreen" style="rounded=1;whiteSpace=wrap;html=1;" vertex="1" parent="1">
          <mxGeometry x="310" y="230" width="120" height="60" as="geometry" />
        </mxCell>
        <mxCell id="92x0XwQia1V_wu7XYbco-13" style="rounded=0;orthogonalLoop=1;jettySize=auto;html=1;exitX=0.25;exitY=0;exitDx=0;exitDy=0;entryX=0.25;entryY=1;entryDx=0;entryDy=0;" edge="1" parent="1" source="92x0XwQia1V_wu7XYbco-4" target="92x0XwQia1V_wu7XYbco-3">
          <mxGeometry relative="1" as="geometry" />
        </mxCell>
        <mxCell id="92x0XwQia1V_wu7XYbco-16" style="rounded=0;orthogonalLoop=1;jettySize=auto;html=1;exitX=0.75;exitY=1;exitDx=0;exitDy=0;entryX=0.75;entryY=0;entryDx=0;entryDy=0;" edge="1" parent="1" source="92x0XwQia1V_wu7XYbco-4" target="92x0XwQia1V_wu7XYbco-5">
          <mxGeometry relative="1" as="geometry" />
        </mxCell>
        <mxCell id="92x0XwQia1V_wu7XYbco-18" style="edgeStyle=orthogonalEdgeStyle;rounded=0;orthogonalLoop=1;jettySize=auto;html=1;exitX=1;exitY=0.25;exitDx=0;exitDy=0;entryX=0;entryY=0.25;entryDx=0;entryDy=0;" edge="1" parent="1" source="92x0XwQia1V_wu7XYbco-4" target="92x0XwQia1V_wu7XYbco-6">
          <mxGeometry relative="1" as="geometry" />
        </mxCell>
        <mxCell id="92x0XwQia1V_wu7XYbco-4" value="UserDetailsScreen" style="rounded=1;whiteSpace=wrap;html=1;" vertex="1" parent="1">
          <mxGeometry x="450" y="360" width="120" height="60" as="geometry" />
        </mxCell>
        <mxCell id="92x0XwQia1V_wu7XYbco-15" style="edgeStyle=orthogonalEdgeStyle;rounded=0;orthogonalLoop=1;jettySize=auto;html=1;exitX=0.25;exitY=0;exitDx=0;exitDy=0;entryX=0.25;entryY=1;entryDx=0;entryDy=0;" edge="1" parent="1" source="92x0XwQia1V_wu7XYbco-5" target="92x0XwQia1V_wu7XYbco-3">
          <mxGeometry relative="1" as="geometry" />
        </mxCell>
        <mxCell id="92x0XwQia1V_wu7XYbco-17" style="rounded=0;orthogonalLoop=1;jettySize=auto;html=1;exitX=0.25;exitY=0;exitDx=0;exitDy=0;entryX=0.25;entryY=1;entryDx=0;entryDy=0;" edge="1" parent="1" source="92x0XwQia1V_wu7XYbco-5" target="92x0XwQia1V_wu7XYbco-4">
          <mxGeometry relative="1" as="geometry" />
        </mxCell>
        <mxCell id="92x0XwQia1V_wu7XYbco-5" value="CartScreen" style="rounded=1;whiteSpace=wrap;html=1;" vertex="1" parent="1">
          <mxGeometry x="310" y="490" width="120" height="60" as="geometry" />
        </mxCell>
        <mxCell id="92x0XwQia1V_wu7XYbco-19" style="edgeStyle=orthogonalEdgeStyle;rounded=0;orthogonalLoop=1;jettySize=auto;html=1;exitX=0;exitY=0.75;exitDx=0;exitDy=0;entryX=1;entryY=0.75;entryDx=0;entryDy=0;" edge="1" parent="1" source="92x0XwQia1V_wu7XYbco-6" target="92x0XwQia1V_wu7XYbco-4">
          <mxGeometry relative="1" as="geometry" />
        </mxCell>
        <mxCell id="92x0XwQia1V_wu7XYbco-6" value="OrderDetailScreen" style="rounded=1;whiteSpace=wrap;html=1;" vertex="1" parent="1">
          <mxGeometry x="660" y="360" width="120" height="60" as="geometry" />
        </mxCell>
        <mxCell id="92x0XwQia1V_wu7XYbco-8" style="edgeStyle=orthogonalEdgeStyle;rounded=0;orthogonalLoop=1;jettySize=auto;html=1;exitX=0.5;exitY=1;exitDx=0;exitDy=0;" edge="1" parent="1" source="92x0XwQia1V_wu7XYbco-7" target="92x0XwQia1V_wu7XYbco-2">
          <mxGeometry relative="1" as="geometry" />
        </mxCell>
        <mxCell id="92x0XwQia1V_wu7XYbco-7" value="" style="ellipse;whiteSpace=wrap;html=1;aspect=fixed;fillColor=#000000;" vertex="1" parent="1">
          <mxGeometry x="105" y="140" width="30" height="30" as="geometry" />
        </mxCell>
      </root>
    </mxGraphModel>
  </diagram>
</mxfile>
